<mxfile host="app.diagrams.net" modified="2023-07-18T21:52:33.269Z" agent="Mozilla/5.0 (Windows NT 10.0; Win64; x64) AppleWebKit/537.36 (KHTML, like Gecko) Chrome/114.0.0.0 Safari/537.36" etag="3lSrBWRt9piMocTbvYZJ" version="21.6.2" type="device">
  <diagram name="Página-1" id="jghujTW39Z268v4CmOfv">
    <mxGraphModel dx="1194" dy="661" grid="1" gridSize="10" guides="1" tooltips="1" connect="1" arrows="1" fold="1" page="1" pageScale="1" pageWidth="827" pageHeight="1169" math="0" shadow="0">
      <root>
        <mxCell id="0" />
        <mxCell id="1" parent="0" />
        <mxCell id="7P0fvK8AVYwt64-LnSHr-25" value="" style="rounded=0;whiteSpace=wrap;html=1;" vertex="1" parent="1">
          <mxGeometry x="30" y="10" width="770" height="620" as="geometry" />
        </mxCell>
        <mxCell id="7P0fvK8AVYwt64-LnSHr-3" style="edgeStyle=orthogonalEdgeStyle;rounded=0;orthogonalLoop=1;jettySize=auto;html=1;" edge="1" parent="1" source="7P0fvK8AVYwt64-LnSHr-1">
          <mxGeometry relative="1" as="geometry">
            <mxPoint x="414" y="120" as="targetPoint" />
          </mxGeometry>
        </mxCell>
        <mxCell id="7P0fvK8AVYwt64-LnSHr-1" value="&lt;b&gt;INÍCIO&lt;/b&gt;" style="ellipse;whiteSpace=wrap;html=1;" vertex="1" parent="1">
          <mxGeometry x="359" y="40" width="110" height="50" as="geometry" />
        </mxCell>
        <mxCell id="7P0fvK8AVYwt64-LnSHr-9" style="edgeStyle=orthogonalEdgeStyle;rounded=0;orthogonalLoop=1;jettySize=auto;html=1;" edge="1" parent="1" source="7P0fvK8AVYwt64-LnSHr-6">
          <mxGeometry relative="1" as="geometry">
            <mxPoint x="414" y="270" as="targetPoint" />
          </mxGeometry>
        </mxCell>
        <mxCell id="7P0fvK8AVYwt64-LnSHr-6" value="nome" style="shape=manualInput;whiteSpace=wrap;html=1;" vertex="1" parent="1">
          <mxGeometry x="359" y="190" width="110" height="50" as="geometry" />
        </mxCell>
        <mxCell id="7P0fvK8AVYwt64-LnSHr-8" style="edgeStyle=orthogonalEdgeStyle;rounded=0;orthogonalLoop=1;jettySize=auto;html=1;" edge="1" parent="1" source="7P0fvK8AVYwt64-LnSHr-7">
          <mxGeometry relative="1" as="geometry">
            <mxPoint x="414" y="200" as="targetPoint" />
          </mxGeometry>
        </mxCell>
        <mxCell id="7P0fvK8AVYwt64-LnSHr-7" value="Digite seu nome" style="shape=document;whiteSpace=wrap;html=1;boundedLbl=1;" vertex="1" parent="1">
          <mxGeometry x="359" y="120" width="110" height="50" as="geometry" />
        </mxCell>
        <mxCell id="7P0fvK8AVYwt64-LnSHr-13" style="edgeStyle=orthogonalEdgeStyle;rounded=0;orthogonalLoop=1;jettySize=auto;html=1;" edge="1" parent="1" source="7P0fvK8AVYwt64-LnSHr-11">
          <mxGeometry relative="1" as="geometry">
            <mxPoint x="414" y="360" as="targetPoint" />
          </mxGeometry>
        </mxCell>
        <mxCell id="7P0fvK8AVYwt64-LnSHr-11" value="Digite sua idade" style="shape=document;whiteSpace=wrap;html=1;boundedLbl=1;" vertex="1" parent="1">
          <mxGeometry x="359" y="280" width="110" height="50" as="geometry" />
        </mxCell>
        <mxCell id="7P0fvK8AVYwt64-LnSHr-14" style="edgeStyle=orthogonalEdgeStyle;rounded=0;orthogonalLoop=1;jettySize=auto;html=1;" edge="1" parent="1" source="7P0fvK8AVYwt64-LnSHr-12">
          <mxGeometry relative="1" as="geometry">
            <mxPoint x="414" y="430" as="targetPoint" />
          </mxGeometry>
        </mxCell>
        <mxCell id="7P0fvK8AVYwt64-LnSHr-12" value="idade" style="shape=manualInput;whiteSpace=wrap;html=1;" vertex="1" parent="1">
          <mxGeometry x="359" y="350" width="110" height="50" as="geometry" />
        </mxCell>
        <mxCell id="7P0fvK8AVYwt64-LnSHr-16" style="edgeStyle=orthogonalEdgeStyle;rounded=0;orthogonalLoop=1;jettySize=auto;html=1;entryX=0.5;entryY=0;entryDx=0;entryDy=0;" edge="1" parent="1" source="7P0fvK8AVYwt64-LnSHr-15" target="7P0fvK8AVYwt64-LnSHr-17">
          <mxGeometry relative="1" as="geometry">
            <mxPoint x="310" y="460" as="targetPoint" />
          </mxGeometry>
        </mxCell>
        <mxCell id="7P0fvK8AVYwt64-LnSHr-19" style="edgeStyle=orthogonalEdgeStyle;rounded=0;orthogonalLoop=1;jettySize=auto;html=1;entryX=0.5;entryY=0;entryDx=0;entryDy=0;" edge="1" parent="1" source="7P0fvK8AVYwt64-LnSHr-15" target="7P0fvK8AVYwt64-LnSHr-18">
          <mxGeometry relative="1" as="geometry">
            <mxPoint x="570" y="460" as="targetPoint" />
          </mxGeometry>
        </mxCell>
        <mxCell id="7P0fvK8AVYwt64-LnSHr-15" value="idade &amp;gt;=18" style="rhombus;whiteSpace=wrap;html=1;" vertex="1" parent="1">
          <mxGeometry x="359" y="430" width="110" height="60" as="geometry" />
        </mxCell>
        <mxCell id="7P0fvK8AVYwt64-LnSHr-21" style="edgeStyle=orthogonalEdgeStyle;rounded=0;orthogonalLoop=1;jettySize=auto;html=1;entryX=0;entryY=0.5;entryDx=0;entryDy=0;" edge="1" parent="1" source="7P0fvK8AVYwt64-LnSHr-17" target="7P0fvK8AVYwt64-LnSHr-20">
          <mxGeometry relative="1" as="geometry">
            <mxPoint x="290" y="600" as="targetPoint" />
            <Array as="points">
              <mxPoint x="290" y="590" />
              <mxPoint x="291" y="590" />
              <mxPoint x="291" y="585" />
            </Array>
          </mxGeometry>
        </mxCell>
        <mxCell id="7P0fvK8AVYwt64-LnSHr-17" value="O candidato: nome, tem a idade: idade,&lt;br&gt;é &lt;b&gt;MENOR DE IDADE&lt;/b&gt;" style="shape=document;whiteSpace=wrap;html=1;boundedLbl=1;" vertex="1" parent="1">
          <mxGeometry x="230" y="480" width="120" height="60" as="geometry" />
        </mxCell>
        <mxCell id="7P0fvK8AVYwt64-LnSHr-22" style="edgeStyle=orthogonalEdgeStyle;rounded=0;orthogonalLoop=1;jettySize=auto;html=1;entryX=1;entryY=0.5;entryDx=0;entryDy=0;" edge="1" parent="1" source="7P0fvK8AVYwt64-LnSHr-18" target="7P0fvK8AVYwt64-LnSHr-20">
          <mxGeometry relative="1" as="geometry">
            <mxPoint x="540" y="590" as="targetPoint" />
            <Array as="points">
              <mxPoint x="540" y="565" />
              <mxPoint x="541" y="565" />
              <mxPoint x="541" y="585" />
            </Array>
          </mxGeometry>
        </mxCell>
        <mxCell id="7P0fvK8AVYwt64-LnSHr-18" value="O candidato: nome, tem a idade: idade,&lt;br&gt;é &lt;b&gt;MAIOR DE IDADE&lt;/b&gt;" style="shape=document;whiteSpace=wrap;html=1;boundedLbl=1;" vertex="1" parent="1">
          <mxGeometry x="480" y="480" width="120" height="60" as="geometry" />
        </mxCell>
        <mxCell id="7P0fvK8AVYwt64-LnSHr-20" value="&lt;b&gt;FIM&lt;/b&gt;" style="ellipse;whiteSpace=wrap;html=1;" vertex="1" parent="1">
          <mxGeometry x="359" y="560" width="110" height="50" as="geometry" />
        </mxCell>
        <mxCell id="7P0fvK8AVYwt64-LnSHr-23" value="&lt;b&gt;&lt;font color=&quot;#66ff66&quot;&gt;VERDADEIRO&lt;/font&gt;&lt;/b&gt;" style="text;html=1;strokeColor=none;fillColor=none;align=center;verticalAlign=middle;whiteSpace=wrap;rounded=0;" vertex="1" parent="1">
          <mxGeometry x="520" y="420" width="60" height="30" as="geometry" />
        </mxCell>
        <mxCell id="7P0fvK8AVYwt64-LnSHr-24" value="&lt;b&gt;&lt;font color=&quot;#ff3333&quot;&gt;FALSO&lt;/font&gt;&lt;/b&gt;" style="text;html=1;strokeColor=none;fillColor=none;align=center;verticalAlign=middle;whiteSpace=wrap;rounded=0;" vertex="1" parent="1">
          <mxGeometry x="250" y="420" width="60" height="30" as="geometry" />
        </mxCell>
      </root>
    </mxGraphModel>
  </diagram>
</mxfile>
